#!OML:ASF \\sashay\E\Suitcase\Project 1\Capture day 1\Session 1\Male1.ASF
:FULLY-SPECIFIED
:DEGREES
652
root 0.470028 17.2822 9.02062 3.92147 2.6749 -3.02038
lowerback 3.62797 -1.34597 2.29782
upperback 1.249 -1.67398 3.85794
thorax -0.700851 -0.839714 2.74609
lowerneck -11.8564 -0.761437 -0.680192
upperneck 15.0423 0.00959345 -5.45034
head 6.53883 -0.490861 -1.63385
rclavicle -1.23246e-014 -3.97569e-015
rhumerus -61.1936 -36.4146 -33.4673
rradius 11.9301
rwrist 24.263
rhand -16.6767 5.28188
rfingers 7.12502
rthumb 9.54731 -24.4818
lclavicle -1.23246e-014 -3.97569e-015
lhumerus -38.9908 4.16278 83.7973
lradius 31.6952
lwrist -10.025
lhand -0.656592 43.939
lfingers 7.12502
lthumb 24.9613 72.3287
rfemur -14.5451 3.40493 27.8109
rtibia 25.1192
rfoot -12.4036 -5.56422
rtoes 18.0447
lfemur -12.3735 1.94643 -13.1308
ltibia 61.8537
lfoot -10.1169 -4.30217
ltoes -15.6195
653
root 0.448875 17.2616 9.12121 3.63276 2.28868 -3.81538
lowerback 3.27334 -1.22272 2.80758
upperback 1.66392 -1.53112 4.06687
thorax -0.087455 -0.765458 2.65543
lowerneck -12.4018 -0.817089 -0.797497
upperneck 15.0446 -0.0257856 -5.47063
head 6.63431 -0.523996 -1.62885
rclavicle 2.38542e-015 -3.4191e-014
rhumerus -60.9377 -38.167 -32.5368
rradius 11.1067
rwrist 26.0267
rhand -17.8128 6.63689
rfingers 7.12502
rthumb 8.45103 -23.174
lclavicle 2.38542e-015 -3.4191e-014
lhumerus -38.144 4.39065 83.6903
lradius 31.9859
lwrist -9.38638
lhand -1.27705 43.2802
lfingers 7.12502
lthumb 24.3666 71.751
rfemur -14.0536 4.27836 28.868
rtibia 25.5184
rfoot -12.7576 -6.22335
rtoes 18.5841
lfemur -12.9287 2.45315 -12.008
ltibia 61.9225
lfoot -11.7323 -3.60012
ltoes -16.9972
654
root 0.446711 17.2461 9.22861 3.33677 2.03517 -3.74483
lowerback 3.21247 -1.13645 2.73613
upperback 1.75458 -1.42653 4.02667
thorax 0.0377326 -0.712974 2.64789
lowerneck -12.3639 -0.961587 -0.993324
upperneck 15.2472 -0.166677 -5.52451
head 6.69032 -0.611408 -1.62912
rclavicle -3.18055e-015 3.49861e-014
rhumerus -60.501 -38.8804 -32.5251
rradius 10.8074
rwrist 26.6209
rhand -17.6004 6.21529
rfingers 7.12502
rthumb 8.65602 -23.5872
lclavicle -3.18055e-015 3.49861e-014
lhumerus -38.0777 4.02402 83.9383
lradius 33.0543
lwrist -8.25973
lhand -1.37884 44.2002
lfingers 7.12502
lthumb 24.269 72.6841
rfemur -13.4555 4.62542 28.8609
rtibia 25.9066
rfoot -13.4243 -6.27398
rtoes 19.403
lfemur -13.2472 2.61279 -12.0454
ltibia 61.701
lfoot -12.6747 -2.40123
ltoes -15.3425
655
root 0.468213 17.2376 9.32592 3.36329 2.01256 -3.01946
lowerback 3.15169 -1.1284 2.48938
upperback 1.55738 -1.41772 3.6197
thorax -0.13627 -0.708897 2.36639
lowerneck -12.419 -0.966065 -0.869444
upperneck 15.6421 -0.186648 -5.46449
head 6.82546 -0.61749 -1.63736
rclavicle 1.23246e-014 -1.74931e-014
rhumerus -59.9792 -38.7581 -33.6944
rradius 11.1692
rwrist 26.093
rhand -17.5841 5.76288
rfingers 7.12502
rthumb 8.67172 -24.039
lclavicle 1.23246e-014 -1.74931e-014
lhumerus -38.2263 4.04128 83.7616
lradius 33.7228
lwrist -7.81323
lhand -2.51006 43.1112
lfingers 7.12502
lthumb 23.1841 71.7359
rfemur -13.1733 3.89001 28.0103
rtibia 26.1244
rfoot -13.7723 -5.67056
rtoes 18.8686
lfemur -13.8998 2.18025 -13.1148
ltibia 61.3615
lfoot -13.8319 -0.626981
ltoes -17.8584
656
root 0.446187 17.224 9.43324 3.19044 1.74261 -3.04434
lowerback 3.44025 -1.0121 2.13168
upperback 1.28073 -1.24671 3.7568
thorax -0.575186 -0.626221 2.71251
lowerneck -12.6349 -0.871193 -0.683926
upperneck 16.4429 0.0116058 -5.79758
head 7.12726 -0.559972 -1.76966
rclavicle -2.31584e-014 3.97569e-014
rhumerus -58.5443 -37.6603 -35.8732
rradius 11.5395
rwrist 24.1077
rhand -17.8092 5.5274
rfingers 7.12502
rthumb 8.45452 -24.2834
lclavicle -2.31584e-014 3.97569e-014
lhumerus -38.3209 3.62921 84.1812
lradius 34.1345
lwrist -6.83632
lhand -2.26725 43.508
lfingers 7.12502
lthumb 23.417 72.1032
rfemur -12.7576 4.62977 28.2173
rtibia 26.472
rfoot -14.2515 -6.14503
rtoes 18.6874
lfemur -14.4722 2.33206 -12.9739
ltibia 60.9637
lfoot -14.2694 0.423148
ltoes -18.286
657
root 0.457806 17.2039 9.51813 3.11668 1.65345 -3.91011
lowerback 3.22571 -0.968019 3.30369
upperback 1.47137 -1.17122 3.84552
thorax -0.282463 -0.583354 2.13803
lowerneck -12.5888 -0.906378 -0.963877
upperneck 16.2235 -0.0609142 -5.41859
head 7.04687 -0.572905 -1.60376
rclavicle -7.7526e-015 -3.49861e-014
rhumerus -57.7892 -38.2633 -36.7297
rradius 11.6157
rwrist 23.9742
rhand -17.9722 6.04018
rfingers 7.12502
rthumb 8.29719 -23.7769
lclavicle -7.7526e-015 -3.49861e-014
lhumerus -37.9773 3.20205 84.3013
lradius 35.3157
lwrist -6.10126
lhand -2.60962 43.9357
lfingers 7.12502
lthumb 23.0886 72.5724
rfemur -12.4894 4.75836 29.1743
rtibia 26.7083
rfoot -14.6398 -6.17134
rtoes 19.4942
lfemur -15.3273 2.31623 -12.0623
ltibia 60.6508
lfoot -15.0185 1.0711
ltoes -17.1649
658
root 0.451753 17.1866 9.61027 2.85591 1.38104 -3.5519
lowerback 3.32875 -0.95996 2.93565
upperback 1.59322 -1.17276 3.66418
thorax -0.211747 -0.584608 2.15747
lowerneck -13.0909 -0.788138 -0.621641
upperneck 16.6933 0.138042 -5.79933
head 7.29277 -0.507559 -1.77567
rclavicle -1.13307e-014 -1.27222e-014
rhumerus -56.812 -38.588 -37.803
rradius 11.6946
rwrist 24.1511
rhand -17.7706 6.04785
rfingers 7.12502
rthumb 8.49168 -23.7614
lclavicle -1.13307e-014 -1.27222e-014
lhumerus -37.425 3.04612 84.2879
lradius 35.8586
lwrist -5.1871
lhand -2.48877 43.6238
lfingers 7.12502
lthumb 23.2045 72.246
rfemur -11.9184 5.16242 28.8938
rtibia 26.8525
rfoot -14.9273 -6.4104
rtoes 18.7393
lfemur -15.8289 2.36772 -12.475
ltibia 60.1336
lfoot -15.4784 1.86104
ltoes -19.1701
